<svg width="20" height="20" viewBox="0 0 20 20" fill="none" xmlns="http://www.w3.org/2000/svg">
<g opacity="0.8">
<path d="M4.16669 10.633C4.16669 9.50149 4.16669 8.93576 4.3954 8.43848C4.62412 7.94119 5.05366 7.57302 5.91273 6.83667L6.74606 6.12239C8.29883 4.79145 9.07521 4.12598 10 4.12598C10.9248 4.12598 11.7012 4.79145 13.254 6.12239L14.0873 6.83667C14.9464 7.57302 15.3759 7.94119 15.6046 8.43848C15.8334 8.93576 15.8334 9.50149 15.8334 10.633V14.1666C15.8334 15.738 15.8334 16.5236 15.3452 17.0118C14.857 17.4999 14.0714 17.4999 12.5 17.4999H7.50002C5.92867 17.4999 5.143 17.4999 4.65484 17.0118C4.16669 16.5236 4.16669 15.738 4.16669 14.1666V10.633Z" stroke="white"/>
<path d="M12.0834 17.5V13.5C12.0834 12.9477 11.6356 12.5 11.0834 12.5H8.91669C8.3644 12.5 7.91669 12.9477 7.91669 13.5V17.5" stroke="white" stroke-linecap="round" stroke-linejoin="round"/>
</g>
</svg>
