<svg width="724" height="655" viewBox="0 0 724 655" fill="none" xmlns="http://www.w3.org/2000/svg">
<path opacity="0.5" d="M2.82944 586.792V601.029L4.31255 604.831C3.8115 604.789 3.33049 604.789 2.82944 604.768V622.806C3.39062 622.849 3.95179 622.87 4.51297 622.933H51.7918C39.4861 613.597 25.1561 607.535 10.1047 605.444L2.82944 586.792ZM724.338 63.3319L590.138 121.525L554.964 31.3945L593.685 14.6021H566.688L551.056 21.3824L548.41 14.6021H537.307L557.589 66.5214L400.14 134.79L378.715 79.9343L400.802 70.3446C411.324 65.7821 416.354 53.0663 412.025 41.9769L401.363 14.6021H395.811L407.315 44.047C410.562 52.3693 406.774 61.9378 398.878 65.3597L332.459 94.1498L301.394 14.6021H290.291L309.771 64.5359L257.502 87.2004L230.926 19.1012L241.288 14.6021H223.611L224.212 16.144L185.531 32.9365L178.377 14.6021H159.858L180.641 67.831L99.9325 102.831L65.4805 14.6021H59.9288L95.1826 104.901L56.0006 121.884L40.9692 83.3984C36.6401 72.309 24.5749 67.0072 14.0529 71.5697L2.82944 76.4279V82.2789L15.997 76.5758C23.8935 73.1539 32.9725 77.1461 36.2193 85.4684L51.2507 123.954L17.0592 138.761L2.82944 102.303V116.54L12.3093 140.831L2.82944 144.95V156.652L125.065 103.655L151.921 172.451L6.7777 235.397L2.82944 225.279V242.937L213.35 151.645L240.907 222.216L116.267 276.269L88.7291 205.762L83.9791 207.832L111.517 278.339L58.3255 301.405L30.7879 230.898L28.4029 231.933L55.9405 302.44L2.82944 325.463V344.981L61.2717 319.634L85.3821 381.396L8.28084 414.812L2.82944 400.871V407.989L5.89586 415.847L2.82944 417.178V428.88L110.795 382.051L132.12 436.653L7.33887 490.79L2.82944 479.236V498.605L4.53301 497.866L53.3751 622.933H58.9267L9.28294 495.796L55.239 475.856L103.019 598.22C107.348 609.309 119.413 614.611 129.935 610.048L189.68 584.131L204.812 622.912H215.915L199.16 580.012L236.538 563.811L258.965 621.243L255.117 622.912H300.111L314.421 616.702C323.961 612.562 332.459 606.901 339.814 600.121L348.713 622.912H354.264L343.843 596.192C369.496 569.472 378.816 528.029 364.265 490.769L358.593 476.258L404.028 456.55L469.004 622.933H474.556L408.798 454.523L484.376 421.74L519.67 512.124L499.388 520.911C473.814 532 461.569 562.945 472.091 589.876L484.978 622.912H496.081L481.571 585.757C473.213 564.339 482.933 539.731 503.276 530.923L523.558 522.136L544.242 575.09C548.571 586.18 560.636 591.481 571.158 586.919L637.597 558.108L662.91 622.933H674.013L580.477 383.36C569.955 356.408 540.594 343.502 515.041 354.591L457.781 379.411C451.187 382.262 443.631 378.946 440.926 371.996L431.165 346.987L568.973 287.231C579.535 300.856 590.378 312.917 602.564 321.64C620.962 334.8 640.423 338.623 661.667 333.173L724.338 493.705V465.253L713.295 436.948L724.338 432.154V426.303L711.331 431.942L694.175 388.007L724.338 374.933V369.082L692.231 383.001L671.548 330.026C673.071 329.456 674.614 328.843 676.157 328.167L724.338 307.277V287.76L669.644 311.48C668.081 312.156 666.557 312.769 665.034 313.318L623.868 207.874L724.338 164.298V152.596L683.172 170.445L655.334 99.1136L712.293 74.4213L724.338 105.281V98.1631L714.658 73.3863L724.338 69.1829V63.3319ZM373.966 82.0043L403.567 157.813C390.34 160.052 376.511 164.066 362.001 169.853L334.403 99.1558L373.966 82.0043ZM346.989 310.382L301.554 330.089L263.274 232.038L308.709 212.331L346.989 310.382ZM313.459 210.282L358.974 190.532L397.254 288.583L351.739 308.333L313.459 210.282ZM296.764 365.279L181.363 415.319L160.038 360.717L275.439 310.678L296.764 365.279ZM207.998 490.663L170.62 506.864L143.564 437.561L180.942 421.36L207.998 490.663ZM183.327 420.325L298.728 370.286L325.785 439.589L210.383 489.628L183.327 420.325ZM303.498 335.095L348.933 315.388L373.124 377.34L327.689 397.048L303.498 335.095ZM353.683 313.339L399.198 293.589L423.389 355.542L377.874 375.292L353.683 313.339ZM368.534 186.54C439.483 158.426 481.23 180.203 514.119 215.626L399.319 265.412L368.534 186.54ZM311.735 69.5419L322.959 98.2898L270.69 120.954L259.466 92.2065L311.735 69.5419ZM156.671 170.381L129.815 101.585L184.549 77.8431L211.406 146.639L156.671 170.381ZM187.476 37.9425L226.176 21.1712L252.752 89.2704L214.051 106.042L187.476 37.9425ZM216.015 111.048L254.716 94.2765L265.94 123.024L227.239 139.796L216.015 111.048ZM229.203 144.781L324.923 103.275L352.481 173.845L256.76 215.351L229.203 144.781ZM247.421 238.903L271.531 300.665L216.797 324.407L192.686 262.645L247.421 238.903ZM187.937 264.694L212.047 326.456L171.803 343.903L147.692 282.141L187.937 264.694ZM90.132 379.326L66.0216 317.564L145.327 283.176L169.438 344.938L90.132 379.326ZM120.295 377.953L157.673 361.752L178.998 416.354L141.64 432.555L120.295 377.953ZM127.991 605.063C120.095 608.485 111.016 604.493 107.769 596.171L60.009 473.807L134.084 441.68L161.14 510.983L159.838 511.554L161.802 516.56L163.105 515.989L187.756 579.146L127.991 605.063ZM197.236 575.027L172.584 511.87L209.943 495.669L234.594 558.826L197.236 575.027ZM212.328 494.655L327.729 444.616L348.432 497.676C349.775 501.098 350.837 504.583 351.699 508.068L236.979 557.812L212.328 494.655ZM307.927 600.036L261.37 620.229L238.943 562.797L352.821 513.412C359.014 549.046 340.977 585.715 307.927 600.036ZM356.649 471.273L329.633 402.054L375.068 382.347L402.084 451.565L356.649 471.273ZM635.653 553.123L569.214 581.934C561.317 585.356 552.238 581.364 548.992 573.041L528.308 520.087L609.057 485.066L635.653 553.123ZM569.755 384.712C570.176 385.621 570.617 386.529 570.997 387.479L605.189 475.054L524.44 510.075L489.146 419.691L569.755 384.712ZM431.426 376.137C436.296 388.599 449.864 394.577 461.689 389.444L518.949 364.625C536.726 356.915 556.828 363.801 567.17 379.981L406.834 449.516L379.818 380.298L425.333 360.548L431.426 376.137ZM430.183 344.495L400.281 267.904L516.023 217.717C528.449 231.426 539.632 247.014 550.735 262.476C556.307 270.228 561.758 277.832 567.29 285.056L430.183 344.495ZM564.404 251.598C543.72 222.786 520.271 190.11 487.764 171.48C464.034 157.877 437.919 153.061 408.818 157.011L402.104 139.817L512.275 92.0375L585.628 279.944C578.854 271.559 571.879 262.011 564.404 251.598ZM655.053 316.254C629.58 321.767 610.801 309.431 590.859 286.239L514.64 91.0025L559.514 71.5486L655.053 316.254ZM680.807 171.459L619.96 197.841L592.122 126.51L652.969 100.127L680.807 171.459Z" fill="url(#paint0_linear_5_388)"/>
<rect y="8" width="125.439" height="647" fill="url(#paint1_linear_5_388)"/>
<circle opacity="0.05" cx="293" cy="92" r="27" fill="#EFA810"/>
<circle cx="293" cy="92" r="6" fill="#EFA810"/>
<circle opacity="0.05" cx="143" cy="263" r="27" fill="#EFA810"/>
<circle cx="143" cy="263" r="6" fill="#EFA810"/>
<circle opacity="0.05" cx="509" cy="27" r="27" fill="#EFA810"/>
<circle cx="509" cy="27" r="6" fill="#EFA810"/>
<defs>
<linearGradient id="paint0_linear_5_388" x1="363.584" y1="777.043" x2="363.668" y2="-111.12" gradientUnits="userSpaceOnUse">
<stop offset="0.0918641" stop-color="#014596"/>
<stop offset="0.0919641" stop-color="#DCDCDC" stop-opacity="0.980718"/>
<stop offset="1" stop-color="#D7D7D7" stop-opacity="0"/>
</linearGradient>
<linearGradient id="paint1_linear_5_388" x1="-4.71574" y1="341.489" x2="125.592" y2="338.012" gradientUnits="userSpaceOnUse">
<stop stop-color="white"/>
<stop offset="1" stop-color="white" stop-opacity="0"/>
</linearGradient>
</defs>
</svg>
