<svg width="86" height="86" viewBox="0 0 86 86" fill="none" xmlns="http://www.w3.org/2000/svg">
<path d="M30.9062 81.9688H28.2188C26.7326 81.9688 25.5312 80.7674 25.5312 79.2812V71.2188H33.5938V79.2812C33.5938 80.7674 32.3924 81.9688 30.9062 81.9688Z" fill="#78909C"/>
<path d="M76.5938 81.9688H73.9062C72.4201 81.9688 71.2188 80.7674 71.2188 79.2812V71.2188H79.2812V79.2812C79.2812 80.7674 78.0799 81.9688 76.5938 81.9688Z" fill="#78909C"/>
<path d="M68.5554 39.9389C65.3493 39.5412 59.4986 38.9688 52.4062 38.9688C45.3139 38.9688 39.4659 39.5412 36.2571 39.9389C34.7843 40.119 33.2121 41.452 32.7418 42.8602L26.875 60.4688H77.9375L72.068 42.8602C71.6004 41.4547 70.0282 40.1217 68.5554 39.9389Z" fill="white"/>
<path d="M32.7418 60.4688H77.9375L72.068 42.8602C72.0653 42.8549 72.0626 42.8495 72.0599 42.8441C69.2891 42.2959 66.3598 41.9922 63.3229 41.9922C47.3779 41.9922 34.2737 50.0977 32.7418 60.4688V60.4688Z" fill="#ECEFF1"/>
<path d="M22.8438 73.9062V63.1562C22.8438 54.4219 35.6094 55.0938 52.4062 55.0938C69.2031 55.0938 81.9688 54.4219 81.9688 63.1562V73.9062H22.8438Z" fill="#F6B125"/>
<path d="M69.875 61.8125C72.842 61.8125 75.25 59.4045 75.25 56.4375V56.2252C69.9073 54.8868 61.7883 55.0938 52.4063 55.0938C36.5312 55.0938 24.2735 54.5052 22.9728 61.8125H69.875Z" fill="#EEA107"/>
<path d="M38.9688 73.9062V68.5312C38.9688 65.5643 41.3768 63.1562 44.3438 63.1562H60.4688C63.4357 63.1562 65.8438 65.5643 65.8438 68.5312V73.9062H38.9688Z" fill="#CFD8DC"/>
<path d="M81.9688 63.1562V68.5312H71.2188V65.8438C71.2188 64.3656 72.4281 63.1562 73.9062 63.1562H81.9688Z" fill="white"/>
<path d="M33.5938 65.8438V68.5312H22.8438V63.1562H30.9062C32.3844 63.1562 33.5938 64.3656 33.5938 65.8438Z" fill="white"/>
<path d="M24.1875 22.8438H10.75C7.03856 22.8438 4.03125 25.8511 4.03125 29.5625V33.5938C4.03125 36.5607 6.43925 38.9688 9.40625 38.9688V52.4062L4.03125 83.3125H9.48687L17.4688 52.4062L20.1562 83.3125H25.5312V38.9688C28.4982 38.9688 30.9062 36.5607 30.9062 33.5938V29.5625C30.9062 25.8672 27.8828 22.8438 24.1875 22.8438Z" fill="#52DEFF"/>
<path d="M17.4688 17.4688C21.1794 17.4688 24.1875 14.4607 24.1875 10.75C24.1875 7.03934 21.1794 4.03125 17.4688 4.03125C13.7581 4.03125 10.75 7.03934 10.75 10.75C10.75 14.4607 13.7581 17.4688 17.4688 17.4688Z" fill="#FFE0B2"/>
<path d="M30.9062 83.3125H25.5312C24.7895 83.3125 24.1875 82.7105 24.1875 81.9688C24.1875 81.227 24.7895 80.625 25.5312 80.625H30.9062C31.6453 80.625 32.25 80.023 32.25 79.2812V73.9062C32.25 73.1645 32.852 72.5625 33.5938 72.5625C34.3355 72.5625 34.9375 73.1645 34.9375 73.9062V79.2812C34.9375 81.5038 33.1288 83.3125 30.9062 83.3125Z" fill="#455A64"/>
<path d="M76.5938 83.3125H73.9063C71.6837 83.3125 69.875 81.5038 69.875 79.2812V73.9062C69.875 73.1645 70.477 72.5625 71.2188 72.5625C71.9605 72.5625 72.5625 73.1645 72.5625 73.9062V79.2812C72.5625 80.023 73.1672 80.625 73.9063 80.625H76.5938C77.3328 80.625 77.9375 80.023 77.9375 79.2812V73.9062C77.9375 73.1645 78.5395 72.5625 79.2813 72.5625C80.023 72.5625 80.625 73.1645 80.625 73.9062V79.2812C80.625 81.5038 78.8163 83.3125 76.5938 83.3125Z" fill="#455A64"/>
<path d="M81.9688 75.25H30.9062C30.1645 75.25 29.5625 74.648 29.5625 73.9062C29.5625 73.1645 30.1645 72.5625 30.9062 72.5625H81.9688C82.7105 72.5625 83.3125 73.1645 83.3125 73.9062C83.3125 74.648 82.7105 75.25 81.9688 75.25Z" fill="#455A64"/>
<path d="M81.9687 67.6927C81.227 67.6927 80.625 67.0907 80.625 66.349V63.1562C80.625 58.4182 76.7039 56.4375 52.4062 56.4375C41.6831 56.4375 35.3245 56.7734 31.1454 57.5582C30.4306 57.6926 29.713 57.2196 29.5759 56.4859C29.4389 55.7576 29.9172 55.0534 30.6456 54.9191C34.9993 54.0994 41.5057 53.75 52.4062 53.75C75.2151 53.75 83.3125 55.1717 83.3125 63.1562V66.349C83.3125 67.0907 82.7105 67.6927 81.9687 67.6927V67.6927Z" fill="#455A64"/>
<path d="M81.9688 69.875H71.2188C70.477 69.875 69.875 69.273 69.875 68.5312V65.8438C69.875 63.6212 71.6837 61.8125 73.9063 61.8125H81.9688C82.7105 61.8125 83.3125 62.4145 83.3125 63.1562V68.5312C83.3125 69.273 82.7105 69.875 81.9688 69.875ZM72.5625 67.1875H80.625V64.5H73.9063C73.1672 64.5 72.5625 65.102 72.5625 65.8438V67.1875Z" fill="#455A64"/>
<path d="M33.5938 69.875H25.5312C24.7895 69.875 24.1875 69.273 24.1875 68.5312C24.1875 67.7895 24.7895 67.1875 25.5312 67.1875H32.25V65.8438C32.25 65.102 31.6453 64.5 30.9062 64.5H29.5625C28.8208 64.5 28.2188 63.898 28.2188 63.1562C28.2188 62.4145 28.8208 61.8125 29.5625 61.8125H30.9062C33.1288 61.8125 34.9375 63.6212 34.9375 65.8438V68.5312C34.9375 69.273 34.3355 69.875 33.5938 69.875Z" fill="#455A64"/>
<path d="M65.8438 69.875C65.102 69.875 64.5 69.273 64.5 68.5312C64.5 66.3087 62.6913 64.5 60.4688 64.5H44.3438C42.1212 64.5 40.3125 66.3087 40.3125 68.5312C40.3125 69.273 39.7105 69.875 38.9688 69.875C38.227 69.875 37.625 69.273 37.625 68.5312C37.625 64.8279 40.6377 61.8125 44.3438 61.8125H60.4688C64.1748 61.8125 67.1875 64.8279 67.1875 68.5312C67.1875 69.273 66.5855 69.875 65.8438 69.875Z" fill="#455A64"/>
<path d="M76.7792 58.3349C76.2148 58.3349 75.6934 57.9801 75.5026 57.4158L70.8022 43.2902C70.4797 42.3416 69.3482 41.3929 68.3861 41.2692C65.5562 40.9118 59.7082 40.3125 52.4062 40.3125C45.1043 40.3125 39.2563 40.9118 36.4237 41.2692C35.4643 41.3929 34.3328 42.3416 34.0076 43.2983L31.7286 50.1407C31.4921 50.8448 30.7343 51.2157 30.0274 50.9926C29.3233 50.7588 28.9444 49.9956 29.1782 49.2941L31.4599 42.4437C32.121 40.5033 34.1071 38.8586 36.0878 38.6033C38.9849 38.2378 44.9592 37.625 52.4062 37.625C59.8533 37.625 65.8276 38.2378 68.7247 38.6033C70.7054 38.8559 72.6942 40.5033 73.3526 42.4329L78.0557 56.5665C78.2896 57.2706 77.9079 58.0312 77.2065 58.265C77.0641 58.3134 76.9216 58.3349 76.7792 58.3349V58.3349Z" fill="#455A64"/>
<path d="M4.03394 83.3125C3.95331 83.3125 3.87 83.3071 3.78938 83.291C3.06106 83.1593 2.57731 82.4579 2.709 81.7296L8.084 52.1671L8.06519 40.1781C4.99875 39.5546 2.6875 36.8402 2.6875 33.5938V29.5625C2.6875 25.1174 6.30488 21.5 10.75 21.5H24.1875C28.6326 21.5 32.25 25.1174 32.25 29.5625V33.5938C32.25 34.7762 31.9382 35.9426 31.347 36.9585C30.3768 38.6328 28.7294 39.7911 26.875 40.1754V81.9688C26.875 82.7105 26.273 83.3125 25.5312 83.3125C24.7895 83.3125 24.1875 82.7105 24.1875 81.9688V38.9688C24.1875 38.227 24.7895 37.625 25.5312 37.625C26.9637 37.625 28.2994 36.8537 29.0223 35.6121C29.3771 35.002 29.5625 34.3032 29.5625 33.5938V29.5625C29.5625 26.5982 27.1518 24.1875 24.1875 24.1875H10.75C7.78569 24.1875 5.375 26.5982 5.375 29.5625V33.5938C5.375 35.8163 7.18369 37.625 9.40625 37.625C10.148 37.625 10.75 38.227 10.75 38.9688V52.4062L5.3535 82.2079C5.23525 82.8583 4.66819 83.3125 4.03394 83.3125Z" fill="#455A64"/>
<path d="M17.4688 18.8125C13.0236 18.8125 9.40625 15.1951 9.40625 10.75C9.40625 6.30487 13.0236 2.6875 17.4688 2.6875C21.9139 2.6875 25.5312 6.30487 25.5312 10.75C25.5312 15.1951 21.9139 18.8125 17.4688 18.8125ZM17.4688 5.375C14.5044 5.375 12.0938 7.78569 12.0938 10.75C12.0938 13.7143 14.5044 16.125 17.4688 16.125C20.4331 16.125 22.8438 13.7143 22.8438 10.75C22.8438 7.78569 20.4331 5.375 17.4688 5.375Z" fill="#455A64"/>
<path d="M25.5312 36.2813C24.7895 36.2813 24.1875 35.6793 24.1875 34.9375V34.0802C24.1875 33.6771 24.0182 33.3116 23.7091 33.0536C23.4081 32.7956 23.0184 32.6908 22.6261 32.7553L12.7549 34.3973C11.5858 34.5935 10.3926 34.2629 9.48687 33.497C8.58119 32.7284 8.0625 31.6077 8.0625 30.4198C8.0625 29.6781 8.6645 29.0761 9.40625 29.0761C10.148 29.0761 10.75 29.6781 10.75 30.4198C10.75 30.8203 10.9193 31.1858 11.2257 31.4438C11.5321 31.7018 11.9191 31.8119 12.3141 31.7448L22.1826 30.1027C23.349 29.9038 24.5396 30.229 25.4479 30.9976C26.3563 31.7663 26.875 32.8896 26.875 34.0802V34.9375C26.875 35.6793 26.273 36.2813 25.5312 36.2813V36.2813Z" fill="#455A64"/>
<path d="M9.40625 83.3125C9.29606 83.3125 9.1805 83.2991 9.06762 83.2695C8.34737 83.0814 7.91737 82.3477 8.10819 81.6301L16.1707 50.7239C16.3346 50.0923 16.9339 49.6569 17.5816 49.7241C18.232 49.7806 18.7507 50.2939 18.8071 50.9469L21.4946 81.8532C21.5591 82.5923 21.0109 83.2453 20.2718 83.3098C19.5435 83.3716 18.8797 82.8261 18.8179 82.087L16.8049 58.9342L10.7043 82.3074C10.5484 82.9121 10.0056 83.3125 9.40625 83.3125V83.3125Z" fill="#455A64"/>
<path d="M25.5312 40.3125H14.7812C14.0395 40.3125 13.4375 39.7105 13.4375 38.9688C13.4375 38.227 14.0395 37.625 14.7812 37.625H25.5312C26.273 37.625 26.875 38.227 26.875 38.9688C26.875 39.7105 26.273 40.3125 25.5312 40.3125Z" fill="#455A64"/>
</svg>
