<svg width="86" height="86" viewBox="0 0 86 86" fill="none" xmlns="http://www.w3.org/2000/svg">
<path d="M80.6922 39.3907L73.9062 41.6536L72.5625 33.5911H80.625C81.3667 33.5911 81.9688 34.1904 81.9688 34.9348V37.6223C81.9688 38.3641 81.399 39.1542 80.6922 39.3907Z" fill="#52DEFF"/>
<path d="M5.30781 39.3907L12.0938 41.6536L13.4375 33.5911H5.375C4.63325 33.5911 4.03125 34.1904 4.03125 34.9348V37.6223C4.03125 38.3641 4.601 39.1542 5.30781 39.3907Z" fill="#CFD8DC"/>
<path d="M14.7812 81.9661H9.40625C7.92006 81.9661 6.71875 80.7621 6.71875 79.2786V68.5286H17.4688V79.2786C17.4688 80.7621 16.2674 81.9661 14.7812 81.9661Z" fill="#78909C"/>
<path d="M76.5938 81.9661H71.2188C69.7326 81.9661 68.5312 80.7621 68.5312 79.2786V68.5286H79.2812V79.2786C79.2812 80.7621 78.0799 81.9661 76.5938 81.9661Z" fill="#78909C"/>
<path d="M5.30781 39.3907L12.0938 41.6536L13.4375 33.5911H5.375C4.63325 33.5911 4.03125 34.1904 4.03125 34.9348V37.6223C4.03125 38.3641 4.601 39.1542 5.30781 39.3907Z" fill="#52DEFF"/>
<path d="M10.75 41.6536L15.0608 22.2068C15.7783 18.9818 18.3744 16.5066 21.6398 15.9906C25.6199 15.3671 31.2852 14.7786 43 14.7786C54.7148 14.7786 60.3801 15.3671 64.3602 15.9933C67.6256 16.5093 70.2244 18.9845 70.9392 22.2095L75.25 41.6536H10.75Z" fill="white"/>
<path d="M18.3019 41.6536H75.25L70.9393 22.2068C70.4313 19.9117 68.9613 18.017 66.9833 16.9178H60.0952C42.3469 16.9178 26.5229 26.7191 18.3019 41.6536V41.6536Z" fill="#ECEFF1"/>
<path d="M4.03125 65.8411V51.0598C4.03125 45.9132 5.37231 41.6536 43 41.6536C80.6277 41.6536 81.9688 45.6902 81.9688 51.0598V65.8411H4.03125Z" fill="#EEA107"/>
<path d="M63.1562 48.3723C66.1232 48.3723 68.5312 45.9643 68.5312 42.9973V42.3738C62.8015 41.8497 54.6395 41.6536 43 41.6536C7.39061 41.6536 4.05005 45.236 4.05005 48.3723H63.1562Z" fill="#F6B125"/>
<path d="M25.5312 65.8411C25.5312 65.8411 25.5312 60.0038 25.5312 57.7786C25.5312 55.5533 27.9393 52.4036 30.9062 52.4036H55.0938C58.0607 52.4036 60.4688 55.5533 60.4688 57.7786V65.8411H25.5312Z" fill="#F6B125"/>
<path d="M81.9688 67.1848H4.03125C3.2895 67.1848 2.6875 66.5828 2.6875 65.8411C2.6875 65.0993 3.2895 64.4973 4.03125 64.4973H81.9688C82.7105 64.4973 83.3125 65.0993 83.3125 65.8411C83.3125 66.5828 82.7105 67.1848 81.9688 67.1848Z" fill="#455A64"/>
<path d="M9.40625 52.4062H17.4688C18.9469 52.4062 20.1562 53.6156 20.1562 55.0937V60.4687H4.03125V52.4062H9.40625Z" fill="white"/>
<path d="M81.9688 52.4062V60.4687H65.8438V55.0937C65.8438 53.6156 67.0531 52.4062 68.5312 52.4062H76.5938H81.9688Z" fill="white"/>
<path d="M81.9688 65.8437V68.5312C81.9688 70.0094 80.7594 71.2187 79.2812 71.2187H6.71875C5.24062 71.2187 4.03125 70.0094 4.03125 68.5312V65.8437H81.9688Z" fill="#ECEFF1"/>
<path d="M80.6922 40.7344C80.1305 40.7344 79.6064 40.3797 79.4156 39.818C79.1818 39.1139 79.5608 38.3533 80.2649 38.1168C80.4234 38.0657 80.625 37.7862 80.625 37.6223V34.9348H73.1C72.3583 34.9348 71.7563 34.3328 71.7563 33.5911C71.7563 32.8493 72.3583 32.2473 73.1 32.2473H80.625C82.1085 32.2473 83.3125 33.454 83.3125 34.9348V37.6223C83.3125 38.9392 82.3692 40.248 81.1195 40.6646C80.9798 40.7129 80.8346 40.7344 80.6922 40.7344Z" fill="#455A64"/>
<path d="M14.7812 83.3098H9.40625C7.18369 83.3098 5.375 81.5011 5.375 79.2786V72.5598C5.375 71.8181 5.977 71.2161 6.71875 71.2161C7.4605 71.2161 8.0625 71.8181 8.0625 72.5598V79.2786C8.0625 80.0203 8.66719 80.6223 9.40625 80.6223H14.7812C15.5203 80.6223 16.125 80.0203 16.125 79.2786V72.5598C16.125 71.8181 16.727 71.2161 17.4688 71.2161C18.2105 71.2161 18.8125 71.8181 18.8125 72.5598V79.2786C18.8125 81.5011 17.0038 83.3098 14.7812 83.3098Z" fill="#455A64"/>
<path d="M76.5938 83.3098H71.2188C68.9962 83.3098 67.1875 81.5011 67.1875 79.2786V71.2161C67.1875 70.4743 67.7895 69.8723 68.5312 69.8723C69.273 69.8723 69.875 70.4743 69.875 71.2161V79.2786C69.875 80.0203 70.4797 80.6223 71.2188 80.6223H76.5938C77.3328 80.6223 77.9375 80.0203 77.9375 79.2786V71.2161C77.9375 70.4743 78.5395 69.8723 79.2812 69.8723C80.023 69.8723 80.625 70.4743 80.625 71.2161V79.2786C80.625 81.5011 78.8163 83.3098 76.5938 83.3098Z" fill="#455A64"/>
<path d="M5.30781 40.7344C5.16538 40.7344 5.02294 40.7129 4.88319 40.6646C3.63081 40.248 2.6875 38.9392 2.6875 37.6223V34.9348C2.6875 33.454 3.8915 32.2473 5.375 32.2473H12.9C13.6418 32.2473 14.2438 32.8493 14.2438 33.5911C14.2438 34.3328 13.6418 34.9348 12.9 34.9348H5.375V37.6223C5.375 37.7862 5.57656 38.0657 5.73244 38.1168C6.43925 38.3506 6.8155 39.1139 6.58169 39.818C6.39356 40.3797 5.8695 40.7344 5.30781 40.7344V40.7344Z" fill="#455A64"/>
<path d="M79.2812 72.5625H6.71875C4.49619 72.5625 2.6875 70.7538 2.6875 68.5312V65.8438C2.6875 65.102 3.2895 64.5 4.03125 64.5H81.9688C82.7105 64.5 83.3125 65.102 83.3125 65.8438V68.5312C83.3125 70.7538 81.5038 72.5625 79.2812 72.5625ZM5.375 67.1875V68.5312C5.375 69.273 5.97969 69.875 6.71875 69.875H79.2812C80.0203 69.875 80.625 69.273 80.625 68.5312V67.1875H5.375Z" fill="#455A64"/>
<path d="M4.03125 61.8098C3.2895 61.8098 2.6875 61.2078 2.6875 60.4661V51.0598C2.6875 41.3257 14.9694 40.3098 43 40.3098C71.0306 40.3098 83.3125 41.3257 83.3125 51.0598V59.6276C83.3125 60.3693 82.7105 60.9713 81.9688 60.9713C81.227 60.9713 80.625 60.3693 80.625 59.6276V51.0598C80.625 44.7308 72.5356 42.9973 43 42.9973C13.4644 42.9973 5.375 44.7308 5.375 51.0598V60.4661C5.375 61.2078 4.773 61.8098 4.03125 61.8098Z" fill="#455A64"/>
<path d="M81.9688 61.8125H65.8438C65.102 61.8125 64.5 61.2105 64.5 60.4688V55.0938C64.5 52.8712 66.3087 51.0625 68.5312 51.0625H76.5938C77.3355 51.0625 77.9375 51.6645 77.9375 52.4062C77.9375 53.148 77.3355 53.75 76.5938 53.75H68.5312C67.7922 53.75 67.1875 54.352 67.1875 55.0938V59.125H80.625V52.4062C80.625 51.6645 81.227 51.0625 81.9688 51.0625C82.7105 51.0625 83.3125 51.6645 83.3125 52.4062V60.4688C83.3125 61.2105 82.7105 61.8125 81.9688 61.8125Z" fill="#455A64"/>
<path d="M20.1562 61.8125H4.03125C3.2895 61.8125 2.6875 61.2105 2.6875 60.4688V52.4062C2.6875 51.6645 3.2895 51.0625 4.03125 51.0625C4.773 51.0625 5.375 51.6645 5.375 52.4062V59.125H18.8125V55.0938C18.8125 54.352 18.2078 53.75 17.4688 53.75H9.40625C8.6645 53.75 8.0625 53.148 8.0625 52.4062C8.0625 51.6645 8.6645 51.0625 9.40625 51.0625H17.4688C19.6913 51.0625 21.5 52.8712 21.5 55.0938V60.4688C21.5 61.2105 20.898 61.8125 20.1562 61.8125Z" fill="#455A64"/>
<path d="M60.4688 61.8098C59.727 61.8098 59.125 61.2078 59.125 60.4661V57.7786C59.125 55.556 57.3163 53.7473 55.0938 53.7473H30.9062C28.6837 53.7473 26.875 55.556 26.875 57.7786V60.4661C26.875 61.2078 26.273 61.8098 25.5312 61.8098C24.7895 61.8098 24.1875 61.2078 24.1875 60.4661V57.7786C24.1875 54.0752 27.2002 51.0598 30.9062 51.0598H55.0938C58.7998 51.0598 61.8125 54.0752 61.8125 57.7786V60.4661C61.8125 61.2078 61.2105 61.8098 60.4688 61.8098Z" fill="#455A64"/>
<path d="M74.9812 44.3652C74.355 44.3652 73.796 43.9245 73.667 43.2849L69.6116 23.0023C69.1413 20.6615 66.8596 17.759 64.5054 17.3801C60.6703 16.7593 55.1179 16.125 43 16.125C30.882 16.125 25.3297 16.7593 21.4973 17.3801C19.1404 17.759 16.856 20.6615 16.3884 23.0023L12.3383 43.2553C12.1905 43.9836 11.4568 44.4539 10.7581 44.3088C10.0297 44.1637 9.55674 43.4569 9.70186 42.7286L13.7519 22.4756C14.405 19.2102 17.3908 15.3214 21.07 14.7275C25.0072 14.0906 30.6939 13.4375 43 13.4375C55.306 13.4375 60.9928 14.0906 64.9327 14.7275C68.6119 15.3214 71.595 19.2102 72.248 22.4756L76.3035 42.7581C76.4486 43.4864 75.9783 44.1932 75.2473 44.3384C75.1613 44.3572 75.0726 44.3652 74.9812 44.3652V44.3652Z" fill="#455A64"/>
</svg>
