<svg width="86" height="86" viewBox="0 0 86 86" fill="none" xmlns="http://www.w3.org/2000/svg">
<path d="M79.2813 81.9688H73.9063C72.4201 81.9688 71.2188 80.7674 71.2188 79.2812V71.2188H79.2813V79.2812C79.2813 80.7674 80.7674 81.9688 79.2813 81.9688Z" fill="#CFD8DC"/>
<path d="M68.5554 39.9389C65.3493 39.5412 59.4986 38.9688 52.4062 38.9688C45.3139 38.9688 39.4659 39.5412 36.2571 39.9389C34.7843 40.119 33.2121 41.452 32.7418 42.8602L26.875 60.4688H77.9375L72.068 42.8602C71.6004 41.4547 70.0282 40.1217 68.5554 39.9389Z" fill="white"/>
<path opacity="0.1" d="M32.7418 60.4688H77.9375L72.068 42.8602C72.0653 42.8549 72.0626 42.8495 72.06 42.8441C69.2891 42.2959 66.3598 41.9922 63.3229 41.9922C47.378 41.9922 34.2737 50.0977 32.7418 60.4688V60.4688Z" fill="#EEA107"/>
<path d="M22.8438 73.9062V63.1562C22.8438 54.4219 35.6094 55.0938 52.4062 55.0938C69.2031 55.0938 81.9688 54.4219 81.9688 63.1562V73.9062H22.8438Z" fill="#F7B125"/>
<path d="M69.875 61.8125C72.842 61.8125 75.25 59.4045 75.25 56.4375V56.2252C69.9073 54.8868 61.7883 55.0938 52.4063 55.0938C36.5312 55.0938 24.2735 54.5052 22.9728 61.8125H69.875Z" fill="#EEA107"/>
<path d="M81.9688 63.1562V68.5312H71.2188V65.8438C71.2188 64.3656 72.4281 63.1562 73.9062 63.1562H81.9688Z" fill="white"/>
<path d="M33.5938 65.8438V68.5312H22.8438V63.1562H30.9062C32.3844 63.1562 33.5938 64.3656 33.5938 65.8438Z" fill="white"/>
<path d="M29.5625 4.03125C15.4666 4.03125 4.03125 15.4639 4.03125 29.5625C4.03125 51.2318 29.5625 81.9688 29.5625 81.9688C29.5625 81.9688 55.0938 51.2291 55.0938 29.5625C55.0938 15.4639 43.6584 4.03125 29.5625 4.03125ZM29.5625 44.3438C21.4006 44.3438 14.7812 37.7244 14.7812 29.5625C14.7812 21.4006 21.4006 14.7812 29.5625 14.7812C37.7244 14.7812 44.3438 21.4006 44.3438 29.5625C44.3438 37.7244 37.7244 44.3438 29.5625 44.3438Z" fill="white"/>
<path d="M30.9062 8.0625C17.5682 8.0625 6.71875 18.9119 6.71875 32.25C6.71875 49.7725 24.1767 73.8176 30.0355 81.3882C33.3734 77.2441 53.965 50.9416 55.04 31.1427C54.4541 18.3207 43.8681 8.0625 30.9062 8.0625V8.0625ZM29.5625 44.3437C21.4006 44.3437 14.7812 37.7244 14.7812 29.5625C14.7812 21.4006 21.4006 14.7812 29.5625 14.7812C37.7244 14.7812 44.3438 21.4006 44.3438 29.5625C44.3438 37.7244 37.7244 44.3437 29.5625 44.3437Z" fill="#52DEFF"/>
<path d="M71.2188 73.9062H79.2812V79.2812C79.2812 80.7594 78.0719 81.9688 76.5938 81.9688H73.9062C72.4281 81.9688 71.2188 80.7594 71.2188 79.2812V73.9062Z" fill="#78909C"/>
<path d="M29.5625 44.3438C37.726 44.3438 44.3438 37.726 44.3438 29.5625C44.3438 21.399 37.726 14.7812 29.5625 14.7812C21.399 14.7812 14.7812 21.399 14.7812 29.5625C14.7812 37.726 21.399 44.3438 29.5625 44.3438Z" fill="white"/>
<path d="M76.5938 83.3125H73.9062C71.6837 83.3125 69.875 81.5038 69.875 79.2812V73.9062C69.875 73.1645 70.477 72.5625 71.2188 72.5625C71.9605 72.5625 72.5625 73.1645 72.5625 73.9062V79.2812C72.5625 80.023 73.1672 80.625 73.9062 80.625H76.5938C77.3328 80.625 77.9375 80.023 77.9375 79.2812V73.9062C77.9375 73.1645 78.5395 72.5625 79.2812 72.5625C80.023 72.5625 80.625 73.1645 80.625 73.9062V79.2812C80.625 81.5038 78.8163 83.3125 76.5938 83.3125Z" fill="#455A64"/>
<path d="M81.9688 75.25H44.3438C43.602 75.25 43 74.648 43 73.9062C43 73.1645 43.602 72.5625 44.3438 72.5625H81.9688C82.7105 72.5625 83.3125 73.1645 83.3125 73.9062C83.3125 74.648 82.7105 75.25 81.9688 75.25Z" fill="#455A64"/>
<path d="M81.9688 67.6927C81.227 67.6927 80.625 67.0907 80.625 66.349V63.1562C80.625 58.4182 76.7039 56.4375 52.4062 56.4375C51.6645 56.4375 51.0625 55.8355 51.0625 55.0938C51.0625 54.352 51.6645 53.75 52.4062 53.75C75.2151 53.75 83.3125 55.1717 83.3125 63.1562V66.349C83.3125 67.0907 82.7105 67.6927 81.9688 67.6927Z" fill="#455A64"/>
<path d="M81.9688 69.875H71.2188C70.477 69.875 69.875 69.273 69.875 68.5312V65.8438C69.875 63.6212 71.6837 61.8125 73.9062 61.8125H81.9688C82.7105 61.8125 83.3125 62.4145 83.3125 63.1562V68.5312C83.3125 69.273 82.7105 69.875 81.9688 69.875ZM72.5625 67.1875H80.625V64.5H73.9062C73.1672 64.5 72.5625 65.102 72.5625 65.8438V67.1875Z" fill="#455A64"/>
<path d="M65.8438 69.875C65.102 69.875 64.5 69.273 64.5 68.5312C64.5 66.3087 62.6913 64.5 60.4688 64.5H49.7188C48.977 64.5 48.375 63.898 48.375 63.1562C48.375 62.4145 48.977 61.8125 49.7188 61.8125H60.4688C64.1748 61.8125 67.1875 64.8279 67.1875 68.5312C67.1875 69.273 66.5855 69.875 65.8438 69.875Z" fill="#455A64"/>
<path d="M76.7792 58.3349C76.2148 58.3349 75.6934 57.9801 75.5026 57.4157L70.8022 43.2902C70.4797 42.3416 69.3482 41.3929 68.3861 41.2692C66.4323 41.022 63.2584 40.6861 59.2325 40.4845C58.4934 40.4469 57.921 39.8153 57.9586 39.0762C57.9935 38.3372 58.5525 37.7594 59.3669 37.7997C63.4734 38.0066 66.7225 38.3506 68.722 38.6006C70.7027 38.8532 72.6915 40.5006 73.3499 42.4302L78.053 56.5638C78.2869 57.2679 77.9052 58.0285 77.2038 58.2623C77.064 58.3134 76.9216 58.3349 76.7792 58.3349V58.3349Z" fill="#455A64"/>
<path d="M29.5625 83.3125C29.1647 83.3125 28.7831 83.1351 28.5278 82.8261C27.4743 81.5576 2.6875 51.4629 2.6875 29.5625C2.6875 22.1638 5.633 15.2704 10.9784 10.1507C11.5133 9.63469 12.3652 9.65619 12.8785 10.1937C13.3891 10.7285 13.373 11.5804 12.8355 12.0938C8.02488 16.7001 5.375 22.9029 5.375 29.5625C5.375 48.0391 24.8137 73.8068 29.5625 79.8214C34.3086 73.8068 53.75 48.031 53.75 29.5625C53.75 16.2271 42.9006 5.375 29.5625 5.375C27.3426 5.375 25.1469 5.67331 23.0426 6.26456C22.3385 6.46881 21.586 6.04956 21.3871 5.33469C21.1883 4.61981 21.6021 3.87806 22.3197 3.6765C24.6578 3.02075 27.0954 2.6875 29.5625 2.6875C44.3814 2.6875 56.4375 14.7436 56.4375 29.5625C56.4375 51.4629 31.6507 81.5576 30.5972 82.8261C30.3419 83.1351 29.9603 83.3125 29.5625 83.3125Z" fill="#455A64"/>
<path d="M29.5625 45.6875C20.6696 45.6875 13.4375 38.4554 13.4375 29.5625C13.4375 20.6696 20.6696 13.4375 29.5625 13.4375C38.4554 13.4375 45.6875 20.6696 45.6875 29.5625C45.6875 38.4554 38.4554 45.6875 29.5625 45.6875ZM29.5625 16.125C22.1531 16.125 16.125 22.1531 16.125 29.5625C16.125 36.9719 22.1531 43 29.5625 43C36.9719 43 43 36.9719 43 29.5625C43 22.1531 36.9719 16.125 29.5625 16.125Z" fill="#455A64"/>
<path d="M29.5625 83.3125H9.40625C8.6645 83.3125 8.0625 82.7105 8.0625 81.9688C8.0625 81.227 8.6645 80.625 9.40625 80.625H29.5625C30.3042 80.625 30.9062 81.227 30.9062 81.9688C30.9062 82.7105 30.3042 83.3125 29.5625 83.3125Z" fill="#455A64"/>
<path d="M4.3 83.3125H4.03125C3.2895 83.3125 2.6875 82.7105 2.6875 81.9688C2.6875 81.227 3.2895 80.625 4.03125 80.625C4.773 80.625 5.50938 81.227 5.50938 81.9688C5.50938 82.7105 5.04175 83.3125 4.3 83.3125V83.3125Z" fill="#455A64"/>
<path d="M73.9062 83.3125H44.3438C43.602 83.3125 43 82.7105 43 81.9688C43 81.227 43.602 80.625 44.3438 80.625H73.9062C74.648 80.625 75.25 81.227 75.25 81.9688C75.25 82.7105 74.648 83.3125 73.9062 83.3125Z" fill="#455A64"/>
<path d="M4.3 83.3125H4.03125C3.2895 83.3125 2.6875 82.7105 2.6875 81.9688C2.6875 81.227 3.2895 80.625 4.03125 80.625C4.773 80.625 5.50938 81.227 5.50938 81.9688C5.50938 82.7105 5.04175 83.3125 4.3 83.3125V83.3125Z" fill="#455A64"/>
<path d="M17.4499 8.23181C17.0119 8.23181 16.5819 8.01681 16.3239 7.62175C15.9208 7.00094 16.0954 6.16512 16.7163 5.762L16.942 5.61419C17.5574 5.21375 18.3959 5.38575 18.7991 6.00656C19.2022 6.62737 19.0275 7.46319 18.4067 7.86631L18.1836 8.01144C17.9579 8.15925 17.7026 8.23181 17.4499 8.23181V8.23181Z" fill="#455A64"/>
<path d="M17.4499 8.23181C17.0119 8.23181 16.5819 8.01681 16.3239 7.62175C15.9208 7.00094 16.0954 6.16512 16.7163 5.762L16.942 5.61419C17.5574 5.21375 18.3959 5.38575 18.7991 6.00656C19.2022 6.62737 19.0275 7.46319 18.4067 7.86631L18.1836 8.01144C17.9579 8.15925 17.7026 8.23181 17.4499 8.23181V8.23181Z" fill="#455A64"/>
</svg>
