<svg width="86" height="86" viewBox="0 0 86 86" fill="none" xmlns="http://www.w3.org/2000/svg">
<path d="M81.9688 60.6569C81.8613 63.5325 79.4963 65.8438 76.5938 65.8438H9.40625C6.45 65.8438 4.03125 63.425 4.03125 60.4688V45.8756C4.03125 44.075 4.91813 42.4087 6.42313 41.4144L9.86313 39.1031C11.3413 38.1356 12.6044 36.8725 13.5719 35.3944L14.5663 33.9162C18.06 28.6756 23.9456 25.5312 30.2344 25.5312H37.3025C46.87 25.5312 55.9538 29.7775 62.0813 37.1412L63.3175 38.6194C64.9837 40.6081 67.1069 42.1669 69.4988 43.1881L70.3856 43.5644C77.3194 46.44 81.8613 53.1587 81.9688 60.6569Z" fill="#F6B125"/>
<path d="M76.5938 61.8125H9.40625C6.45 61.8125 4.03125 59.3938 4.03125 56.4375V60.4688C4.03125 63.425 6.45 65.8438 9.40625 65.8438H76.5938C79.4963 65.8438 81.8613 63.5325 81.9688 60.6569C81.9553 59.7431 81.872 58.8401 81.7296 57.9532C81.0684 60.1758 79.0286 61.8125 76.5938 61.8125Z" fill="#EEA107"/>
<path d="M17.3478 30.6805L20.2369 38.7C21.7956 42.9194 25.8 45.6875 30.2881 45.6875H74.1051C72.9549 44.8624 71.7321 44.1207 70.3856 43.5644L69.4987 43.1881C68.5151 42.7689 67.5906 42.2368 66.7091 41.6401C66.7172 41.6428 66.7226 41.6509 66.7306 41.6562H31.6319C27.1437 41.6562 23.1394 38.8881 21.5806 34.6687L19.4414 28.9712C18.7023 29.4846 18.0089 30.0624 17.3478 30.6805V30.6805Z" fill="#EEA107"/>
<path d="M66.7306 41.6562H31.6319C27.1438 41.6562 23.1394 38.8881 21.5806 34.6687L19.4306 28.9444C22.5481 26.7675 26.3106 25.5312 30.2344 25.5312H37.3025C46.87 25.5312 55.9538 29.7775 62.0813 37.1412L63.3175 38.6194C64.285 39.8019 65.4675 40.7963 66.7306 41.6562V41.6562Z" fill="#CFD8DC"/>
<path d="M63.3175 38.6194L62.0812 37.1412C55.9537 29.7775 46.87 25.5312 37.3025 25.5312H33.2712C42.8387 25.5312 51.9225 29.7775 58.05 37.1412L59.2862 38.6194C60.2537 39.8019 61.4362 40.7963 62.6994 41.6562H66.7306C65.4675 40.7963 64.285 39.8019 63.3175 38.6194V38.6194Z" fill="white"/>
<path d="M25.6119 34.6687C24.2144 30.9466 26.4154 26.7998 30.2989 25.9559C31.5889 25.6764 32.9192 25.5312 34.2656 25.5312H30.2344C26.3106 25.5312 22.5481 26.7675 19.4306 28.9444L21.5806 34.6687C23.1394 38.8881 27.1438 41.6562 31.6319 41.6562H35.6631C31.175 41.6562 27.1706 38.8881 25.6119 34.6687V34.6687Z" fill="white"/>
<path d="M20.1562 57.7812C24.6175 57.7812 28.2188 61.3825 28.2188 65.8438C28.2188 70.305 24.6175 73.9062 20.1562 73.9062C15.695 73.9062 12.0938 70.305 12.0938 65.8438C12.0938 61.3825 15.695 57.7812 20.1562 57.7812Z" fill="#78909C"/>
<path d="M20.1562 68.5312C21.6405 68.5312 22.8438 67.328 22.8438 65.8438C22.8438 64.3595 21.6405 63.1562 20.1562 63.1562C18.672 63.1562 17.4688 64.3595 17.4688 65.8438C17.4688 67.328 18.672 68.5312 20.1562 68.5312Z" fill="white"/>
<path d="M63.1562 57.7812C67.6175 57.7812 71.2188 61.3825 71.2188 65.8438C71.2188 70.305 67.6175 73.9062 63.1562 73.9062C58.695 73.9062 55.0938 70.305 55.0938 65.8438C55.0938 61.3825 58.695 57.7812 63.1562 57.7812Z" fill="#78909C"/>
<path d="M63.1562 68.5312C64.6405 68.5312 65.8438 67.328 65.8438 65.8438C65.8438 64.3595 64.6405 63.1562 63.1562 63.1562C61.672 63.1562 60.4688 64.3595 60.4688 65.8438C60.4688 67.328 61.672 68.5312 63.1562 68.5312Z" fill="white"/>
<path d="M81.0281 55.0938H75.4112C72.9387 55.0938 70.7888 53.4275 70.1975 51.0356L69.875 49.7188H78.2062C79.4156 51.3581 80.3831 53.1587 81.0281 55.0938Z" fill="#ECEFF1"/>
<path d="M52.4062 59.125H30.9062C30.1645 59.125 29.5625 58.523 29.5625 57.7812C29.5625 57.0395 30.1645 56.4375 30.9062 56.4375H52.4062C53.148 56.4375 53.75 57.0395 53.75 57.7812C53.75 58.523 53.148 59.125 52.4062 59.125Z" fill="#52DEFF"/>
<path d="M39.7212 21.6344L41.6562 25.5312H28.2188L30.1538 21.6344C30.6106 20.7206 31.5512 20.1562 32.5725 20.1562H37.3025C38.3238 20.1562 39.2644 20.7206 39.7212 21.6344V21.6344Z" fill="#52DEFF"/>
<path d="M81.9688 80.625H33.5938C32.852 80.625 32.25 80.023 32.25 79.2812C32.25 78.5395 32.852 77.9375 33.5938 77.9375H81.9688C82.7105 77.9375 83.3125 78.5395 83.3125 79.2812C83.3125 80.023 82.7105 80.625 81.9688 80.625Z" fill="#455A64"/>
<path d="M61.8125 75.25H9.40625C8.6645 75.25 8.0625 74.648 8.0625 73.9062C8.0625 73.1645 8.6645 72.5625 9.40625 72.5625H61.8125C62.5542 72.5625 63.1562 73.1645 63.1562 73.9062C63.1562 74.648 62.5542 75.25 61.8125 75.25Z" fill="#455A64"/>
<path d="M41.925 53.75H41.6562C40.9145 53.75 40.3125 53.148 40.3125 52.4062C40.3125 51.6645 40.9145 51.0625 41.6562 51.0625C42.398 51.0625 43.1344 51.6645 43.1344 52.4062C43.1344 53.148 42.6668 53.75 41.925 53.75V53.75Z" fill="#455A64"/>
<path d="M47.3 53.75H47.0312C46.2895 53.75 45.6875 53.148 45.6875 52.4062C45.6875 51.6645 46.2895 51.0625 47.0312 51.0625C47.773 51.0625 48.5094 51.6645 48.5094 52.4062C48.5094 53.148 48.0418 53.75 47.3 53.75Z" fill="#455A64"/>
<path d="M49.9875 51.0625H49.7187C48.977 51.0625 48.375 50.4605 48.375 49.7188C48.375 48.977 48.977 48.375 49.7187 48.375C50.4605 48.375 51.1969 48.977 51.1969 49.7188C51.1969 50.4605 50.7293 51.0625 49.9875 51.0625Z" fill="#455A64"/>
<path d="M44.6125 51.0625H44.3437C43.602 51.0625 43 50.4605 43 49.7188C43 48.977 43.602 48.375 44.3437 48.375C45.0855 48.375 45.8219 48.977 45.8219 49.7188C45.8219 50.4605 45.3543 51.0625 44.6125 51.0625Z" fill="#455A64"/>
<path d="M39.2375 51.0625H38.9688C38.227 51.0625 37.625 50.4605 37.625 49.7188C37.625 48.977 38.227 48.375 38.9688 48.375C39.7105 48.375 40.4469 48.977 40.4469 49.7188C40.4469 50.4605 39.9793 51.0625 39.2375 51.0625V51.0625Z" fill="#455A64"/>
<path d="M4.3 75.25H4.03125C3.2895 75.25 2.6875 74.648 2.6875 73.9062C2.6875 73.1645 3.2895 72.5625 4.03125 72.5625C4.773 72.5625 5.50938 73.1645 5.50938 73.9062C5.50938 74.648 5.04175 75.25 4.3 75.25V75.25Z" fill="#455A64"/>
<path d="M51.0625 67.1875H28.2188C27.477 67.1875 26.875 66.5855 26.875 65.8438C26.875 65.102 27.477 64.5 28.2188 64.5H51.0625C51.8042 64.5 52.4062 65.102 52.4062 65.8438C52.4062 66.5855 51.8042 67.1875 51.0625 67.1875Z" fill="#455A64"/>
<path d="M76.5938 67.1875H71.2188C70.477 67.1875 69.875 66.5855 69.875 65.8438C69.875 65.102 70.477 64.5 71.2188 64.5H76.5938C78.7733 64.5 80.5444 62.7908 80.625 60.6058C80.5229 53.7016 76.3035 47.472 69.8696 44.806L68.972 44.4244C66.3812 43.3171 64.07 41.6079 62.2855 39.4821L61.0492 38.0013C55.1636 30.9304 46.5099 26.875 37.3025 26.875H30.2344C24.3729 26.875 18.9334 29.7856 15.6842 34.6607L14.6845 36.1442C13.6203 37.7728 12.2416 39.1515 10.5968 40.2265L7.17294 42.5297C6.04419 43.2768 5.375 44.5238 5.375 45.8756V60.4688C5.375 62.2586 6.58169 63.8523 8.30706 64.3468C9.02194 64.5511 9.43312 65.2955 9.23156 66.0077C9.02731 66.7226 8.28019 67.1257 7.57069 66.9322C4.69506 66.1098 2.6875 63.4519 2.6875 60.4688V45.8756C2.6875 43.6181 3.80819 41.5326 5.68406 40.2937L9.11331 37.9878C10.4571 37.1063 11.5751 35.991 12.4458 34.6607L13.4509 33.1664C17.1973 27.5469 23.4726 24.1875 30.2344 24.1875H37.3025C47.3108 24.1875 56.717 28.595 63.1132 36.2812L64.3468 37.7567C65.8572 39.56 67.8218 41.0112 70.0228 41.9519L70.907 42.3281C78.3218 45.4026 83.1943 52.5917 83.3098 60.6381C83.1754 64.3414 80.2246 67.1875 76.5938 67.1875V67.1875Z" fill="#455A64"/>
<path d="M66.7306 43H38.9688C38.227 43 37.625 42.398 37.625 41.6562C37.625 40.9145 38.227 40.3125 38.9688 40.3125H63.0246C62.7612 40.0357 62.5139 39.7562 62.2774 39.4713L61.0492 38.0039C55.1636 30.9304 46.5099 26.875 37.3025 26.875H30.2344C26.6412 26.875 23.1716 27.9715 20.1993 30.0463C19.5946 30.4736 18.7534 30.3231 18.3288 29.713C17.9041 29.1056 18.0519 28.2671 18.662 27.8425C22.0859 25.4506 26.0876 24.1875 30.2344 24.1875H37.3025C47.3108 24.1875 56.717 28.595 63.1132 36.2812L64.3468 37.7567C65.1584 38.7511 66.1824 39.6594 67.4831 40.5436C67.9722 40.8769 68.1846 41.4869 68.0126 42.0513C67.8406 42.6157 67.3192 43 66.7306 43V43Z" fill="#455A64"/>
<path d="M33.5937 43H31.6319C26.6035 43 22.0563 39.8395 20.3202 35.1337L19.9197 34.0641C19.659 33.3707 20.0111 32.594 20.7045 32.3333C21.3979 32.078 22.1719 32.4247 22.4352 33.1181L22.8384 34.1931C24.1902 37.8561 27.7242 40.3125 31.6319 40.3125H33.5937C34.3355 40.3125 34.9375 40.9145 34.9375 41.6563C34.9375 42.398 34.3355 43 33.5937 43Z" fill="#455A64"/>
<path d="M20.1562 75.25C14.9694 75.25 10.75 71.0306 10.75 65.8438C10.75 60.6569 14.9694 56.4375 20.1562 56.4375C25.3431 56.4375 29.5625 60.6569 29.5625 65.8438C29.5625 71.0306 25.3431 75.25 20.1562 75.25ZM20.1562 59.125C16.4529 59.125 13.4375 62.1404 13.4375 65.8438C13.4375 69.5471 16.4529 72.5625 20.1562 72.5625C23.8596 72.5625 26.875 69.5471 26.875 65.8438C26.875 62.1404 23.8596 59.125 20.1562 59.125Z" fill="#455A64"/>
<path d="M20.1562 69.875C17.9337 69.875 16.125 68.0663 16.125 65.8438C16.125 63.6212 17.9337 61.8125 20.1562 61.8125C22.3788 61.8125 24.1875 63.6212 24.1875 65.8438C24.1875 68.0663 22.3788 69.875 20.1562 69.875ZM20.1562 64.5C19.4145 64.5 18.8125 65.102 18.8125 65.8438C18.8125 66.5855 19.4145 67.1875 20.1562 67.1875C20.898 67.1875 21.5 66.5855 21.5 65.8438C21.5 65.102 20.898 64.5 20.1562 64.5Z" fill="#455A64"/>
<path d="M63.1562 75.25C57.9694 75.25 53.75 71.0306 53.75 65.8438C53.75 60.6569 57.9694 56.4375 63.1562 56.4375C68.3431 56.4375 72.5625 60.6569 72.5625 65.8438C72.5625 71.0306 68.3431 75.25 63.1562 75.25ZM63.1562 59.125C59.4529 59.125 56.4375 62.1404 56.4375 65.8438C56.4375 69.5471 59.4529 72.5625 63.1562 72.5625C66.8596 72.5625 69.875 69.5471 69.875 65.8438C69.875 62.1404 66.8596 59.125 63.1562 59.125Z" fill="#455A64"/>
<path d="M63.1562 69.875C60.9337 69.875 59.125 68.0663 59.125 65.8438C59.125 63.6212 60.9337 61.8125 63.1562 61.8125C65.3788 61.8125 67.1875 63.6212 67.1875 65.8438C67.1875 68.0663 65.3788 69.875 63.1562 69.875ZM63.1562 64.5C62.4145 64.5 61.8125 65.102 61.8125 65.8438C61.8125 66.5855 62.4145 67.1875 63.1562 67.1875C63.898 67.1875 64.5 66.5855 64.5 65.8438C64.5 65.102 63.898 64.5 63.1562 64.5Z" fill="#455A64"/>
<path d="M63.1562 43H38.9687C38.2834 43 37.7083 42.4867 37.633 41.8041L36.2893 29.7103C36.2087 28.9739 36.7381 28.3101 37.4772 28.2268C38.2297 28.1623 38.88 28.6783 38.9607 29.4147L40.1727 40.3125H63.1562C63.898 40.3125 64.5 40.9145 64.5 41.6562C64.5 42.398 63.898 43 63.1562 43Z" fill="#455A64"/>
<path d="M76.9969 56.4375H75.4112C72.3125 56.4375 69.6331 54.3493 68.894 51.3581L68.5689 50.0386C68.4721 49.6381 68.5635 49.2135 68.8161 48.8883C69.0687 48.5631 69.4638 48.375 69.875 48.375H78.2062C78.948 48.375 79.55 48.977 79.55 49.7188C79.55 50.4605 78.948 51.0625 78.2062 51.0625H71.603C72.1567 52.6616 73.6724 53.75 75.4112 53.75H76.9969C77.7386 53.75 78.3406 54.352 78.3406 55.0938C78.3406 55.8355 77.7386 56.4375 76.9969 56.4375Z" fill="#455A64"/>
<path d="M9.18319 51.0625H4.03125C3.2895 51.0625 2.6875 50.4605 2.6875 49.7188C2.6875 48.977 3.2895 48.375 4.03125 48.375H9.18319C9.92494 48.375 10.5269 48.977 10.5269 49.7188C10.5269 50.4605 9.92494 51.0625 9.18319 51.0625Z" fill="#455A64"/>
<path d="M81.7457 61.8125H76.5938C75.852 61.8125 75.25 61.2105 75.25 60.4688C75.25 59.727 75.852 59.125 76.5938 59.125H81.7457C82.4874 59.125 83.0894 59.727 83.0894 60.4688C83.0894 61.2105 82.4874 61.8125 81.7457 61.8125Z" fill="#455A64"/>
<path d="M41.71 26.875C41.6912 26.875 41.6751 26.8723 41.6563 26.875H28.2188C27.7538 26.875 27.3211 26.6358 27.0766 26.2407C26.832 25.8457 26.8078 25.3512 27.0148 24.9346L28.9498 21.0378C29.6378 19.6618 31.0245 18.8125 32.5725 18.8125H37.3025C38.8505 18.8125 40.2373 19.6618 40.9226 21.0324L42.7124 24.6363C42.9248 24.8728 43.0538 25.1872 43.0538 25.5312C43.0538 26.273 42.4518 26.875 41.71 26.875V26.875ZM30.3876 24.1875H39.4901L38.5199 22.231C38.2915 21.7822 37.8266 21.5 37.3025 21.5H32.5725C32.0484 21.5 31.5835 21.7822 31.3551 22.2337L30.3876 24.1875Z" fill="#455A64"/>
</svg>
