<svg width="22" height="22" viewBox="0 0 22 22" fill="none" xmlns="http://www.w3.org/2000/svg">
<path d="M21.8167 6.59981C21.8167 6.59981 21.6333 5.04147 20.9 4.39981C20.075 3.48314 19.1583 3.48314 18.7 3.48314C15.5833 3.2998 11 3.2998 11 3.2998C11 3.2998 6.41667 3.2998 3.3 3.48314C2.84167 3.5748 1.925 3.57481 1.1 4.39981C0.458333 5.04147 0.183333 6.59981 0.183333 6.59981C0.183333 6.59981 0 8.34147 0 10.1748V11.8248C0 13.5665 0.183333 15.3998 0.183333 15.3998C0.183333 15.3998 0.366667 16.9581 1.1 17.5998C1.925 18.5165 3.025 18.4248 3.48333 18.5165C5.225 18.6998 11 18.6998 11 18.6998C11 18.6998 15.5833 18.6998 18.7 18.4248C19.1583 18.3331 20.075 18.3331 20.9 17.5081C21.5417 16.8665 21.8167 15.3081 21.8167 15.3081C21.8167 15.3081 22 13.5665 22 11.7331V10.0831C22 8.34147 21.8167 6.59981 21.8167 6.59981ZM8.70833 13.8415V7.69981L14.6667 10.8165L8.70833 13.8415Z" fill="#E33927"/>
</svg>
